<svg xmlns="http://www.w3.org/2000/svg" width="300" height="420" viewBox="0 0 300 420" preserveAspectRatio="xMidYMax meet" aria-hidden="true" xmlns:c2pa="http://c2pa.org/manifest"><metadata><c2pa:manifest>AAAWgmp1bWIAAAAeanVtZGMycGEAEQAQgAAAqgA4m3EDYzJwYQAAABZcanVtYgAAAEdqdW1kYzJtYQARABCAAACqADibcQN1cm46YzJwYTo5ZTM0N2UxYy1iNTE0LTQxNzUtYmY5OC00ZjA4ODAzZDczODkAAAADl2p1bWIAAAApanVtZGMyYXMAEQAQgAAAqgA4m3EDYzJwYS5hc3NlcnRpb25zAAAAALxqdW1iAAAARGp1bWRjYm9yABEAEIAAAKoAOJtxE2MycGEuaW5ncmVkaWVudC52MwAAAAAYYzJzaF85SwVl8ORJ/P/iHpeF6xEAAABwY2JvcqNpZGM6Zm9ybWF0bWltYWdlL3N2Zyt4bWxqaW5zdGFuY2VJRHgseG1wOmlpZDo1YTI0ZTVmYy1mMjdiLTQ0ZGUtODg1NC04ZmMzZjJkNDEzY2RscmVsYXRpb25zaGlwaHBhcmVudE9mAAAB4mp1bWIAAABBanVtZGNib3IAEQAQgAAAqgA4m3ETYzJwYS5hY3Rpb25zLnYyAAAAABhjMnNomggJDt4fsQT4oWqCJkvqtgAAAZljYm9yomdhY3Rpb25zgqJmYWN0aW9ua2MycGEub3BlbmVkanBhcmFtZXRlcnOha2luZ3JlZGllbnRzgaJjdXJseC1zZWxmI2p1bWJmPWMycGEuYXNzZXJ0aW9ucy9jMnBhLmluZ3JlZGllbnQudjNkaGFzaFggJFrclK726Y/uEoMeyHCKeAPs3KJuvOXup49xvpkxJ8ikZmFjdGlvbngdY29tLmFudGhyb3BpYy5jbGF1ZGUucHJvdmlkZWRqcGFyYW1ldGVyc6F4H2NvbS5hbnRocm9waWMub3JpZ2luLWNvbmZpZGVuY2VndW5rbm93bmtkZXNjcmlwdGlvbnhmQ2xhdWRlIHByb3ZpZGVkIHRoaXMgZmlsZSBhdCB0aGUgcmVxdWVzdCBvZiBhIHVzZXIgYW5kIG1heSBoYXZlIGNyZWF0ZWQgb3IgbW9kaWZpZWQgdGhlIGZpbGUgY29udGVudHMubXNvZnR3YXJlQWdlbnShZG5hbWVmQ2xhdWRlcmFsbEFjdGlvbnNJbmNsdWRlZPUAAADIanVtYgAAAEBqdW1kY2JvcgARABCAAACqADibcRNjMnBhLmhhc2guZGF0YQAAAAAYYzJzaPPhiOguo1VhET2CEvKBS1wAAACAY2JvcqVjYWxnZnNoYTI1NmNwYWRNAAAAAAAAAAAAAAAAAGRoYXNoWCBD5AKFTI91dm97AoA8iSxjHk+Ynp/3Ard3T2mul1xAeWRuYW1lbmp1bWJmIG1hbmlmZXN0amV4Y2x1c2lvbnOBomVzdGFydBjNZmxlbmd0aBkeBAAAAj5qdW1iAAAAJ2p1bWRjMmNsABEAEIAAAKoAOJtxA2MycGEuY2xhaW0udjIAAAACD2Nib3KlY2FsZ2ZzaGEyNTZpc2lnbmF0dXJleE1zZWxmI2p1bWJmPS9jMnBhL3VybjpjMnBhOjllMzQ3ZTFjLWI1MTQtNDE3NS1iZjk4LTRmMDg4MDNkNzM4OS9jMnBhLnNpZ25hdHVyZWppbnN0YW5jZUlEeCx4bXA6aWlkOjNiOTNjYmM3LTg5NWQtNGNlMC1iODA1LTY0MjVjMzgzZWZiNnJjcmVhdGVkX2Fzc2VydGlvbnODomN1cmx4LXNlbGYjanVtYmY9YzJwYS5hc3NlcnRpb25zL2MycGEuaW5ncmVkaWVudC52M2RoYXNoWCAkWtyUrvbpj+4Sgx7IcIp4A+zcom685e6nj3G+mTEnyKJjdXJseCpzZWxmI2p1bWJmPWMycGEuYXNzZXJ0aW9ucy9jMnBhLmFjdGlvbnMudjJkaGFzaFggLnkC6SFMk8PjpNgotYddKkXmiE1tbcbLkoPfdKgViTSiY3VybHgpc2VsZiNqdW1iZj1jMnBhLmFzc2VydGlvbnMvYzJwYS5oYXNoLmRhdGFkaGFzaFggiheN46wEWaTF/f5Lwl5Az2H2wJQ3tJZ4RhlTmofC+5t0Y2xhaW1fZ2VuZXJhdG9yX2luZm+jZG5hbWVvQW50aHJvcGljIEZpbGVzZ3ZlcnNpb25lMS4wLjBrc3BlY1ZlcnNpb25lMi40LjAAABA4anVtYgAAAChqdW1kYzJjcwARABCAAACqADibcQNjMnBhLnNpZ25hdHVyZQAAABAIY2JvctKEWQISogEmGCFZAgowggIGMIIBjaADAgECAhRA5aAK7sI50L64g/oGQgU9Z1UTADAKBggqhkjOPQQDAzBJMRcwFQYDVQQKEw5BbnRocm9waWMsIFBCQzEuMCwGA1UEAxMlQW50aHJvcGljIENvbnRlbnQgQ3JlZGVudGlhbHMgUm9vdCBDQTAeFw0yNjA4MDcxODQzNTZaFw0yODA4MDYxOTQzNTZaMEQxFzAVBgNVBAoTDkFudGhyb3BpYywgUEJDMSkwJwYDVQQDEyBBbnRocm9waWMgQ2xhdWRlIENvbnRlbnQgU2lnbmluZzBZMBMGByqGSM49AgEGCCqGSM49AwEHA0IABJh6CmvLUBgFFNU0vUKlOVtE6djd17L5SuwX0LemFisBM3dkd/3cyjxFA3Qo5S46fX0/ihY0VZ7mfb9KF703t5OjWDBWMA4GA1UdDwEB/wQEAwIHgDAVBgNVHSUEDjAMBgorBgEEAYPoXgIBMAwGA1UdEwEB/wQCMAAwHwYDVR0jBBgwFoAUzlHiBIFOZFsj+OPEz5o+nMHXXMIwCgYIKoZIzj0EAwMDZwAwZAIwMXMdFJ4BetLLVY7ORuE9noqbbAZOZn/aArXyTwFAZfKrPzxF2vPoJNf1+UCdg1XGAjBwX1zd9WGqYkqmL5SFqw1QySjr1zJfpJM9+1rdDwSPLMOPOjKuiXjoU/pUUeG9RwmhY3BhZFkNngAAAAAAAAAAAAAAAAAAAAAAAAAAAAAAAAAAAAAAAAAAAAAAAAAAAAAAAAAAAAAAAAAAAAAAAAAAAAAAAAAAAAAAAAAAAAAAAAAAAAAAAAAAAAAAAAAAAAAAAAAAAAAAAAAAAAAAAAAAAAAAAAAAAAAAAAAAAAAAAAAAAAAAAAAAAAAAAAAAAAAAAAAAAAAAAAAAAAAAAAAAAAAAAAAAAAAAAAAAAAAAAAAAAAAAAAAAAAAAAAAAAAAAAAAAAAAAAAAAAAAAAAAAAAAAAAAAAAAAAAAAAAAAAAAAAAAAAAAAAAAAAAAAAAAAAAAAAAAAAAAAAAAAAAAAAAAAAAAAAAAAAAAAAAAAAAAAAAAAAAAAAAAAAAAAAAAAAAAAAAAAAAAAAAAAAAAAAAAAAAAAAAAAAAAAAAAAAAAAAAAAAAAAAAAAAAAAAAAAAAAAAAAAAAAAAAAAAAAAAAAAAAAAAAAAAAAAAAAAAAAAAAAAAAAAAAAAAAAAAAAAAAAAAAAAAAAAAAAAAAAAAAAAAAAAAAAAAAAAAAAAAAAAAAAAAAAAAAAAAAAAAAAAAAAAAAAAAAAAAAAAAAAAAAAAAAAAAAAAAAAAAAAAAAAAAAAAAAAAAAAAAAAAAAAAAAAAAAAAAAAAAAAAAAAAAAAAAAAAAAAAAAAAAAAAAAAAAAAAAAAAAAAAAAAAAAAAAAAAAAAAAAAAAAAAAAAAAAAAAAAAAAAAAAAAAAAAAAAAAAAAAAAAAAAAAAAAAAAAAAAAAAAAAAAAAAAAAAAAAAAAAAAAAAAAAAAAAAAAAAAAAAAAAAAAAAAAAAAAAAAAAAAAAAAAAAAAAAAAAAAAAAAAAAAAAAAAAAAAAAAAAAAAAAAAAAAAAAAAAAAAAAAAAAAAAAAAAAAAAAAAAAAAAAAAAAAAAAAAAAAAAAAAAAAAAAAAAAAAAAAAAAAAAAAAAAAAAAAAAAAAAAAAAAAAAAAAAAAAAAAAAAAAAAAAAAAAAAAAAAAAAAAAAAAAAAAAAAAAAAAAAAAAAAAAAAAAAAAAAAAAAAAAAAAAAAAAAAAAAAAAAAAAAAAAAAAAAAAAAAAAAAAAAAAAAAAAAAAAAAAAAAAAAAAAAAAAAAAAAAAAAAAAAAAAAAAAAAAAAAAAAAAAAAAAAAAAAAAAAAAAAAAAAAAAAAAAAAAAAAAAAAAAAAAAAAAAAAAAAAAAAAAAAAAAAAAAAAAAAAAAAAAAAAAAAAAAAAAAAAAAAAAAAAAAAAAAAAAAAAAAAAAAAAAAAAAAAAAAAAAAAAAAAAAAAAAAAAAAAAAAAAAAAAAAAAAAAAAAAAAAAAAAAAAAAAAAAAAAAAAAAAAAAAAAAAAAAAAAAAAAAAAAAAAAAAAAAAAAAAAAAAAAAAAAAAAAAAAAAAAAAAAAAAAAAAAAAAAAAAAAAAAAAAAAAAAAAAAAAAAAAAAAAAAAAAAAAAAAAAAAAAAAAAAAAAAAAAAAAAAAAAAAAAAAAAAAAAAAAAAAAAAAAAAAAAAAAAAAAAAAAAAAAAAAAAAAAAAAAAAAAAAAAAAAAAAAAAAAAAAAAAAAAAAAAAAAAAAAAAAAAAAAAAAAAAAAAAAAAAAAAAAAAAAAAAAAAAAAAAAAAAAAAAAAAAAAAAAAAAAAAAAAAAAAAAAAAAAAAAAAAAAAAAAAAAAAAAAAAAAAAAAAAAAAAAAAAAAAAAAAAAAAAAAAAAAAAAAAAAAAAAAAAAAAAAAAAAAAAAAAAAAAAAAAAAAAAAAAAAAAAAAAAAAAAAAAAAAAAAAAAAAAAAAAAAAAAAAAAAAAAAAAAAAAAAAAAAAAAAAAAAAAAAAAAAAAAAAAAAAAAAAAAAAAAAAAAAAAAAAAAAAAAAAAAAAAAAAAAAAAAAAAAAAAAAAAAAAAAAAAAAAAAAAAAAAAAAAAAAAAAAAAAAAAAAAAAAAAAAAAAAAAAAAAAAAAAAAAAAAAAAAAAAAAAAAAAAAAAAAAAAAAAAAAAAAAAAAAAAAAAAAAAAAAAAAAAAAAAAAAAAAAAAAAAAAAAAAAAAAAAAAAAAAAAAAAAAAAAAAAAAAAAAAAAAAAAAAAAAAAAAAAAAAAAAAAAAAAAAAAAAAAAAAAAAAAAAAAAAAAAAAAAAAAAAAAAAAAAAAAAAAAAAAAAAAAAAAAAAAAAAAAAAAAAAAAAAAAAAAAAAAAAAAAAAAAAAAAAAAAAAAAAAAAAAAAAAAAAAAAAAAAAAAAAAAAAAAAAAAAAAAAAAAAAAAAAAAAAAAAAAAAAAAAAAAAAAAAAAAAAAAAAAAAAAAAAAAAAAAAAAAAAAAAAAAAAAAAAAAAAAAAAAAAAAAAAAAAAAAAAAAAAAAAAAAAAAAAAAAAAAAAAAAAAAAAAAAAAAAAAAAAAAAAAAAAAAAAAAAAAAAAAAAAAAAAAAAAAAAAAAAAAAAAAAAAAAAAAAAAAAAAAAAAAAAAAAAAAAAAAAAAAAAAAAAAAAAAAAAAAAAAAAAAAAAAAAAAAAAAAAAAAAAAAAAAAAAAAAAAAAAAAAAAAAAAAAAAAAAAAAAAAAAAAAAAAAAAAAAAAAAAAAAAAAAAAAAAAAAAAAAAAAAAAAAAAAAAAAAAAAAAAAAAAAAAAAAAAAAAAAAAAAAAAAAAAAAAAAAAAAAAAAAAAAAAAAAAAAAAAAAAAAAAAAAAAAAAAAAAAAAAAAAAAAAAAAAAAAAAAAAAAAAAAAAAAAAAAAAAAAAAAAAAAAAAAAAAAAAAAAAAAAAAAAAAAAAAAAAAAAAAAAAAAAAAAAAAAAAAAAAAAAAAAAAAAAAAAAAAAAAAAAAAAAAAAAAAAAAAAAAAAAAAAAAAAAAAAAAAAAAAAAAAAAAAAAAAAAAAAAAAAAAAAAAAAAAAAAAAAAAAAAAAAAAAAAAAAAAAAAAAAAAAAAAAAAAAAAAAAAAAAAAAAAAAAAAAAAAAAAAAAAAAAAAAAAAAAAAAAAAAAAAAAAAAAAAAAAAAAAAAAAAAAAAAAAAAAAAAAAAAAAAAAAAAAAAAAAAAAAAAAAAAAAAAAAAAAAAAAAAAAAAAAAAAAAAAAAAAAAAAAAAAAAAAAAAAAAAAAAAAAAAAAAAAAAAAAAAAAAAAAAAAAAAAAAAAAAAAAAAAAAAAAAAAAAAAAAAAAAAAAAAAAAAAAAAAAAAAAAAAAAAAAAAAAAAAAAAAAAAAAAAAAAAAAAAAAAAAAAAAAAAAAAAAAAAAAAAAAAAAAAAAAAAAAAAAAAAAAAAAAAAAAAAAAAAAAAAAAAAAAAAAAAAAAAAAAAAAAAAAAAAAAAAAAAAAAAAAAAAAAAAAAAAAAAAAAAAAAAAAAAAAAAAAAAAAAAAAAAAAAAAAAAAAAAAAAAAAAAAAAAAAAAAAAAAAAAAAAAAAAAAAAAAAAAAAAAAAAAAAAAAAAAAAAAAAAAAAAAAAAAAAAAAAAAAAAAAAAAAAAAAAAAAAAAAAAAAAAAAAAAAAAAAAAAAAAAAAAAAAAAAAAAAAAAAAAAAAAAAAAAAAAAAAAAAAAAAAAAAAAAAAAAAAAAAAAAAAAAAAAAAAAAAAAAAAAAAAAAAAAAAAAAAAAAAAAAAAAAAAAAAAAAAAAAAAAAAAAAAAAAAAAAAAAAAAAAAAAAAAAAAAAAAAAAAAAAAAAAAAAAAAAAAAAAAAAAAAAAAAAAAAAAAAAAAAAAAAAAAAAAAAAAAAAAAAAAAAAAAAAAAAAAAAAAAAAAAAAAAAAAAAAAAAAAAAAAAAAAAAAAAAAAAAAAAAAAAAAAAAAAAAAAAAAAAAAAAAAAAAAAAAAAAAAAAAAAAAAAAAAAAAAAAAAAAAAAAAAAAAAAAAAAAAAAAAAAAAAAAAAAAAAAAAAAAAAAAAAAAAAAAAAAAAAAAAAAAAAAAAAAAAAAAAAAAAAAAAAAAAAAAAAAAAAAAAAAAAAAAAAAAAAAAAAAAAAAAAAAAAAAAAAAAAAAAAAAAAAAAAAAAAAAAAAAAAAAAAAAAAAAAAAAAAAAAAAAAAAAAAAAAAAAAAAAAAAAAAAAAAAAAAAAAAAAAAAAAAAAAAAAAAAAAAAAAAAAAAAAAAAAAAAAAAAAAAAAAAAAAAAAAAAAAAAAAAAAAAAAAAAAAAAAAAAAAAAAAAAAAAAAAAAAAAAAAAAAAAAAAAAAAAAAAAAAAAAAAAAAAAAAAAAAAAAAAAAAAAAAAAAAAAAAAAAAAAAAAAAAAAAAAAAAAAAAAAAAAAAAAAAAAAAAAAAAAAAAAAAAAAAAAAAAAAAAAAAAAAAAAAAAAAAAAAAAAAAAAAAAAAAAAAAAAAAAAAAAAAAAAAAAAAAAAAAAAAAAAAAAAAAAAAAAAAAAAAAAAAAAAAAAAAAAAAAAAAAAAAAAAAAAAAAAAAAAAAAAAAAAAAAAAAAAAAAAAAAAAAAAAAAAAAAAAAAAAAAAAAAAAAAAAAAAAAAAAAAAAAAAAAAAAAAAAAAAAAAAAAAAAAAAAAAAAAAAAAAAAAAAAAAAAAAAAAAAAAAAAAAAAAAAAAAAAAAAAAAAAAAAAAAAAAAAAAAAAAAAAAAAAAAAAAAAAAAAAAAAAAAAAAAAAAAAAAAAAAAAAAAAAAAAAAAAAAAAAAAAAAAAAAAAAAAAAAAAAAAAAAAAAAAAAAAAAAAAAAAAAAAAAAAPZYQBHt0/UcgDMEhWq3JsVC5WZFzUoANHiaYjuj1P6VRwIMkQKLpLA9QqNmPstl9y/WrKKTRDiRvhqoTPILI1SL1GI=</c2pa:manifest></metadata>
    <style>.lg{transform-box:view-box}.ll{transform-origin:132px 300px;animation:stepL 0.8s ease-in-out infinite}.lr{transform-origin:168px 300px;animation:stepR 0.8s ease-in-out infinite}@keyframes stepL{0%,100%{transform:translateY(0) rotate(0)}25%{transform:translateY(-8px) rotate(-4deg)}50%{transform:translateY(0) rotate(0)}}@keyframes stepR{0%,50%{transform:translateY(0) rotate(0)}75%{transform:translateY(-8px) rotate(4deg)}100%{transform:translateY(0) rotate(0)}}@media (prefers-reduced-motion:reduce){.lg{animation:none}}</style><defs>
      <clipPath id="k152eL"><ellipse cx="122" cy="128" rx="15" ry="18"></ellipse></clipPath>
      <clipPath id="k152eR"><ellipse cx="178" cy="128" rx="15" ry="18"></ellipse></clipPath>
      <clipPath id="k152m"><path data-p="mclip" d="M132.65,160.00 Q150.00,175.80 167.35,160.00 Q150.00,214.20 132.65,160.00 Z"></path></clipPath>
    </defs>
    <ellipse data-p="shadow" cx="150" cy="406" rx="70" ry="9" fill="#0B2233" opacity=".12" transform="translate(150,406) scale(1.00,1) translate(-150,-406)"></ellipse>
    <g data-p="root" transform="translate(150,405.00) scale(1.00,1.00) translate(-150,-405)">
      <g class="lg ll"><rect x="118" y="300" width="28" height="94" rx="14" fill="#153345"></rect><rect x="104" y="384" width="46" height="22" rx="11" fill="#fff"></rect><rect x="104" y="398" width="46" height="8" rx="4" fill="#D8E4EA"></rect></g><g class="lg lr"><rect x="154" y="300" width="28" height="94" rx="14" fill="#153345"></rect><rect x="150" y="384" width="46" height="22" rx="11" fill="#fff"></rect><rect x="150" y="398" width="46" height="8" rx="4" fill="#D8E4EA"></rect></g>
      <g data-p="upper" transform="translate(0,-0.22) rotate(0.00,150,320)">
        <path d="M100,222 C100,208 112,200 126,200 L174,200 C188,200 200,208 200,222 L206,312 C206,320 200,326 192,326 L108,326 C100,326 94,320 94,312 Z" fill="#10B8B8"></path>
        
        <path d="M130,200 L150,238 L170,200 Z" fill="#C2F7E4"></path><path d="M130,200 L150,238 M170,200 L150,238 M150,238 L150,312" stroke="#0E7B7E" stroke-width="4" stroke-linecap="round"></path><rect x="94" y="310" width="112" height="16" rx="8" fill="#0E7B7E"></rect>
        <g data-p="head" transform="translate(0.00,0.00) rotate(0.00,150,196)">
          <path d="M70,128 C66,58 108,26 150,26 C194,26 236,58 230,128 L234,196 C234,208 222,212 212,208 L202,202 L202,140 L98,140 L98,202 L88,208 C78,212 66,208 66,196 Z" fill="#0B2233"></path>
          <rect x="138" y="182" width="24" height="26" fill="#CB9068"></rect>
          <circle cx="78" cy="128" r="13" fill="#E3AE87"></circle><circle cx="222" cy="128" r="13" fill="#E3AE87"></circle>
          <circle cx="78" cy="128" r="6" fill="#CB9068"></circle><circle cx="222" cy="128" r="6" fill="#CB9068"></circle>
          <ellipse cx="150" cy="120" rx="72" ry="76" fill="#E3AE87"></ellipse>
          <path d="M76,116 C78,60 114,36 150,36 C188,36 222,60 224,116 C206,96 184,86 158,88 C134,78 102,88 76,116 Z" fill="#0B2233"></path>
      <path d="M120,44 C138,40 156,46 166,62 C150,58 134,60 118,70 C112,60 112,50 120,44 Z" fill="#22CFCB"></path>
      <path d="M188,62 a12,10 0 1 1 8,16 l-6,8 l0,-9 a12,10 0 0 1 -2,-15 Z" fill="#25D79B"></path>
          <ellipse cx="114" cy="156" rx="9" ry="5" fill="#FF6A6A" opacity=".3"></ellipse><ellipse cx="186" cy="156" rx="9" ry="5" fill="#FF6A6A" opacity=".3"></ellipse>
          
          <g clip-path="url(#k152eL)">
            <ellipse cx="122" cy="128" rx="15" ry="18" fill="#fff"></ellipse>
            <g data-p="pupL" transform="translate(-0.55,-0.10)"><g transform="translate(122,130)"><circle r="9.4" fill="#0B2233"></circle><circle r="5.4" fill="#04121B"></circle><circle cx="-3.3" cy="-3.9" r="3.3" fill="#fff"></circle><circle cx="3" cy="3.3" r="1.5" fill="#fff"></circle></g></g>
            <ellipse data-p="lowL" cx="122" cy="165" rx="24" ry="20" fill="#E3AE87" transform="translate(0,-11.00)"></ellipse>
            <g data-p="lidL" transform="translate(0,0.00)"><rect x="105" y="76" width="34" height="38" fill="#E3AE87"></rect><path d="M105,112 Q122,116 139,112" stroke="#CB9068" stroke-width="3" fill="none"></path></g>
          </g>
          <g data-p="lashL" transform="translate(0,0.00)"><path d="M110,117 l-7,-6 M115,112 l-4,-8" stroke="#0B2233" stroke-width="3.6" stroke-linecap="round"></path></g>
          <g data-p="browL" transform="translate(122,94.00) rotate(0.00)"><path d="M-14,2 Q0,-5 14,2" stroke="#0B2233" stroke-width="7" stroke-linecap="round" fill="none"></path></g>
          <g clip-path="url(#k152eR)">
            <ellipse cx="178" cy="128" rx="15" ry="18" fill="#fff"></ellipse>
            <g data-p="pupR" transform="translate(-0.55,-0.10)"><g transform="translate(178,130)"><circle r="9.4" fill="#0B2233"></circle><circle r="5.4" fill="#04121B"></circle><circle cx="-3.3" cy="-3.9" r="3.3" fill="#fff"></circle><circle cx="3" cy="3.3" r="1.5" fill="#fff"></circle></g></g>
            <ellipse data-p="lowR" cx="178" cy="165" rx="24" ry="20" fill="#E3AE87" transform="translate(0,-11.00)"></ellipse>
            <g data-p="lidR" transform="translate(0,0.00)"><rect x="161" y="76" width="34" height="38" fill="#E3AE87"></rect><path d="M161,112 Q178,116 195,112" stroke="#CB9068" stroke-width="3" fill="none"></path></g>
          </g>
          <g data-p="lashR" transform="translate(0,0.00)"><path d="M190,117 l7,-6 M185,112 l4,-8" stroke="#0B2233" stroke-width="3.6" stroke-linecap="round"></path></g>
          <g data-p="browR" transform="translate(178,94.00) rotate(0.00)"><path d="M-14,2 Q0,-5 14,2" stroke="#0B2233" stroke-width="7" stroke-linecap="round" fill="none"></path></g>
          <path d="M146,146 Q150,154 156,146" stroke="#CB9068" stroke-width="5" stroke-linecap="round" fill="none"></path>
          <path data-p="mfill" fill="#04121B" d="M132.65,160.00 Q150.00,175.80 167.35,160.00 Q150.00,214.20 132.65,160.00 Z" style="opacity: 1;"></path>
          <g clip-path="url(#k152m)"><rect data-p="teeth" x="120" y="163.90" width="60" height="9" fill="#fff" style="opacity: 1;"></rect><ellipse data-p="tongue" cx="150" cy="183.10" rx="11" ry="6" fill="#FF6A6A"></ellipse></g>
          <path data-p="mline" stroke="#0B2233" stroke-width="5" stroke-linejoin="round" stroke-linecap="round" fill="none" d="M132.65,160.00 Q150.00,175.80 167.35,160.00 Q150.00,214.20 132.65,160.00 Z"></path>
        </g>
        <path data-p="armL" stroke="#10B8B8" stroke-width="26" stroke-linecap="round" stroke-linejoin="round" fill="none" d="M108.00,216.00 C91.15,253.38 79.93,268.29 45.66,298.86"></path>
          
          <g data-p="handL" transform="translate(45.66,298.86) rotate(48.27) scale(1,1)"><g data-p="hL-pocket" style="display:none"><path d="M-16,-3 Q0,3 16,-3 L15,13 Q0,16 -15,13 Z" fill="#153345"></path><path d="M-16,-3 Q0,3 16,-3" stroke="rgba(4,18,27,.35)" stroke-width="2.5" fill="none" stroke-linecap="round"></path><ellipse cx="-11" cy="0" rx="4.5" ry="6" fill="#E3AE87"></ellipse></g><g data-p="hL-relax" style="display: none;"><path d="M-6.5,16 L-7.5,25" stroke="#CB9068" stroke-width="7.4" stroke-linecap="round" fill="none"></path><path d="M-6.5,16 L-7.5,25" stroke="#E3AE87" stroke-width="5.2" stroke-linecap="round" fill="none"></path><path d="M-2.2,18 L-2.6,28" stroke="#CB9068" stroke-width="7.4" stroke-linecap="round" fill="none"></path><path d="M-2.2,18 L-2.6,28" stroke="#E3AE87" stroke-width="5.2" stroke-linecap="round" fill="none"></path><path d="M2.2,18 L2.6,28" stroke="#CB9068" stroke-width="7.4" stroke-linecap="round" fill="none"></path><path d="M2.2,18 L2.6,28" stroke="#E3AE87" stroke-width="5.2" stroke-linecap="round" fill="none"></path><path d="M6.5,16 L7.5,24" stroke="#CB9068" stroke-width="7.4" stroke-linecap="round" fill="none"></path><path d="M6.5,16 L7.5,24" stroke="#E3AE87" stroke-width="5.2" stroke-linecap="round" fill="none"></path><path d="M-9,6 L-15,14" stroke="#CB9068" stroke-width="7.4" stroke-linecap="round" fill="none"></path><path d="M-9,6 L-15,14" stroke="#E3AE87" stroke-width="5.2" stroke-linecap="round" fill="none"></path><ellipse cx="0" cy="10.5" rx="10.5" ry="11" fill="#E3AE87"></ellipse></g><g data-p="hL-open" style=""><path d="M-6.5,16 L-12.5,29" stroke="#CB9068" stroke-width="7.4" stroke-linecap="round" fill="none"></path><path d="M-6.5,16 L-12.5,29" stroke="#E3AE87" stroke-width="5.2" stroke-linecap="round" fill="none"></path><path d="M-2.2,18 L-4,33" stroke="#CB9068" stroke-width="7.4" stroke-linecap="round" fill="none"></path><path d="M-2.2,18 L-4,33" stroke="#E3AE87" stroke-width="5.2" stroke-linecap="round" fill="none"></path><path d="M2.2,18 L4,33" stroke="#CB9068" stroke-width="7.4" stroke-linecap="round" fill="none"></path><path d="M2.2,18 L4,33" stroke="#E3AE87" stroke-width="5.2" stroke-linecap="round" fill="none"></path><path d="M6.5,16 L11.5,28" stroke="#CB9068" stroke-width="7.4" stroke-linecap="round" fill="none"></path><path d="M6.5,16 L11.5,28" stroke="#E3AE87" stroke-width="5.2" stroke-linecap="round" fill="none"></path><path d="M-9,7 L-20,9" stroke="#CB9068" stroke-width="7.4" stroke-linecap="round" fill="none"></path><path d="M-9,7 L-20,9" stroke="#E3AE87" stroke-width="5.2" stroke-linecap="round" fill="none"></path><ellipse cx="0" cy="10.5" rx="10.5" ry="11" fill="#E3AE87"></ellipse></g><g data-p="hL-point" style="display:none"><path d="M-6.5,16 L-6.5,21" stroke="#CB9068" stroke-width="7.4" stroke-linecap="round" fill="none"></path><path d="M-6.5,16 L-6.5,21" stroke="#E3AE87" stroke-width="5.2" stroke-linecap="round" fill="none"></path><path d="M2.2,18 L3,22" stroke="#CB9068" stroke-width="7.4" stroke-linecap="round" fill="none"></path><path d="M2.2,18 L3,22" stroke="#E3AE87" stroke-width="5.2" stroke-linecap="round" fill="none"></path><path d="M6.5,16 L7,20" stroke="#CB9068" stroke-width="7.4" stroke-linecap="round" fill="none"></path><path d="M6.5,16 L7,20" stroke="#E3AE87" stroke-width="5.2" stroke-linecap="round" fill="none"></path><path d="M-2.2,18 L-3,37" stroke="#CB9068" stroke-width="7.4" stroke-linecap="round" fill="none"></path><path d="M-2.2,18 L-3,37" stroke="#E3AE87" stroke-width="5.2" stroke-linecap="round" fill="none"></path><path d="M-9,7 L-14,15" stroke="#CB9068" stroke-width="7.4" stroke-linecap="round" fill="none"></path><path d="M-9,7 L-14,15" stroke="#E3AE87" stroke-width="5.2" stroke-linecap="round" fill="none"></path><ellipse cx="0" cy="10.5" rx="10.5" ry="11" fill="#E3AE87"></ellipse></g><g data-p="hL-thumb" style="display:none"><path d="M-6,15 L-6,19" stroke="#CB9068" stroke-width="7.4" stroke-linecap="round" fill="none"></path><path d="M-6,15 L-6,19" stroke="#E3AE87" stroke-width="5.2" stroke-linecap="round" fill="none"></path><path d="M-2,16 L-2,20" stroke="#CB9068" stroke-width="7.4" stroke-linecap="round" fill="none"></path><path d="M-2,16 L-2,20" stroke="#E3AE87" stroke-width="5.2" stroke-linecap="round" fill="none"></path><path d="M2,16 L2,20" stroke="#CB9068" stroke-width="7.4" stroke-linecap="round" fill="none"></path><path d="M2,16 L2,20" stroke="#E3AE87" stroke-width="5.2" stroke-linecap="round" fill="none"></path><path d="M6,15 L6,19" stroke="#CB9068" stroke-width="7.4" stroke-linecap="round" fill="none"></path><path d="M6,15 L6,19" stroke="#E3AE87" stroke-width="5.2" stroke-linecap="round" fill="none"></path><path d="M-9,9 L-9.5,28" stroke="#CB9068" stroke-width="7.4" stroke-linecap="round" fill="none"></path><path d="M-9,9 L-9.5,28" stroke="#E3AE87" stroke-width="5.2" stroke-linecap="round" fill="none"></path><ellipse cx="0" cy="10" rx="11.5" ry="10" fill="#E3AE87"></ellipse><path d="M-5,15 h11" stroke="#CB9068" stroke-width="2.4" stroke-linecap="round"></path></g><g data-p="hL-scratch" style="display:none"><path d="M-6.5,16 Q-10,23 -6,28" stroke="#CB9068" stroke-width="7.4" stroke-linecap="round" fill="none"></path><path d="M-6.5,16 Q-10,23 -6,28" stroke="#E3AE87" stroke-width="5.2" stroke-linecap="round" fill="none"></path><path d="M-2.2,18 Q-4.5,26 -0.5,30" stroke="#CB9068" stroke-width="7.4" stroke-linecap="round" fill="none"></path><path d="M-2.2,18 Q-4.5,26 -0.5,30" stroke="#E3AE87" stroke-width="5.2" stroke-linecap="round" fill="none"></path><path d="M2.2,18 Q2.5,26 5.5,28" stroke="#CB9068" stroke-width="7.4" stroke-linecap="round" fill="none"></path><path d="M2.2,18 Q2.5,26 5.5,28" stroke="#E3AE87" stroke-width="5.2" stroke-linecap="round" fill="none"></path><path d="M6.5,16 Q9,22 8.5,26" stroke="#CB9068" stroke-width="7.4" stroke-linecap="round" fill="none"></path><path d="M6.5,16 Q9,22 8.5,26" stroke="#E3AE87" stroke-width="5.2" stroke-linecap="round" fill="none"></path><path d="M-9,6 L-14,12" stroke="#CB9068" stroke-width="7.4" stroke-linecap="round" fill="none"></path><path d="M-9,6 L-14,12" stroke="#E3AE87" stroke-width="5.2" stroke-linecap="round" fill="none"></path><ellipse cx="0" cy="10.5" rx="10.5" ry="11" fill="#E3AE87"></ellipse></g><g data-p="hL-cup" style="display:none"><path d="M-6.5,16 L-8,30" stroke="#CB9068" stroke-width="7.4" stroke-linecap="round" fill="none"></path><path d="M-6.5,16 L-8,30" stroke="#E3AE87" stroke-width="5.2" stroke-linecap="round" fill="none"></path><path d="M-2.2,18 L-2.6,33" stroke="#CB9068" stroke-width="7.4" stroke-linecap="round" fill="none"></path><path d="M-2.2,18 L-2.6,33" stroke="#E3AE87" stroke-width="5.2" stroke-linecap="round" fill="none"></path><path d="M2.2,18 L2.8,33" stroke="#CB9068" stroke-width="7.4" stroke-linecap="round" fill="none"></path><path d="M2.2,18 L2.8,33" stroke="#E3AE87" stroke-width="5.2" stroke-linecap="round" fill="none"></path><path d="M6.5,16 L8,29" stroke="#CB9068" stroke-width="7.4" stroke-linecap="round" fill="none"></path><path d="M6.5,16 L8,29" stroke="#E3AE87" stroke-width="5.2" stroke-linecap="round" fill="none"></path><path d="M-9,7 L-16,13" stroke="#CB9068" stroke-width="7.4" stroke-linecap="round" fill="none"></path><path d="M-9,7 L-16,13" stroke="#E3AE87" stroke-width="5.2" stroke-linecap="round" fill="none"></path><ellipse cx="0" cy="10.5" rx="10.5" ry="11" fill="#E3AE87"></ellipse></g><g data-p="hL-fist" style="display:none"><path d="M-6.5,15 L-6.5,18" stroke="#CB9068" stroke-width="7.4" stroke-linecap="round" fill="none"></path><path d="M-6.5,15 L-6.5,18" stroke="#E3AE87" stroke-width="5.2" stroke-linecap="round" fill="none"></path><path d="M-2.2,16 L-2.2,19" stroke="#CB9068" stroke-width="7.4" stroke-linecap="round" fill="none"></path><path d="M-2.2,16 L-2.2,19" stroke="#E3AE87" stroke-width="5.2" stroke-linecap="round" fill="none"></path><path d="M2.2,16 L2.2,19" stroke="#CB9068" stroke-width="7.4" stroke-linecap="round" fill="none"></path><path d="M2.2,16 L2.2,19" stroke="#E3AE87" stroke-width="5.2" stroke-linecap="round" fill="none"></path><path d="M6.5,15 L6.5,18" stroke="#CB9068" stroke-width="7.4" stroke-linecap="round" fill="none"></path><path d="M6.5,15 L6.5,18" stroke="#E3AE87" stroke-width="5.2" stroke-linecap="round" fill="none"></path><path d="M-9,8 L-5,15" stroke="#CB9068" stroke-width="7.4" stroke-linecap="round" fill="none"></path><path d="M-9,8 L-5,15" stroke="#E3AE87" stroke-width="5.2" stroke-linecap="round" fill="none"></path><ellipse cx="0" cy="10.5" rx="10.5" ry="11" fill="#E3AE87"></ellipse></g></g><path data-p="armR" stroke="#10B8B8" stroke-width="26" stroke-linecap="round" stroke-linejoin="round" fill="none" d="M192.00,216.00 C208.85,253.38 220.07,268.29 254.34,298.86"></path>
          
          <g data-p="handR" transform="translate(254.34,298.86) rotate(-48.27) scale(-1,1)"><g data-p="hR-pocket" style="display:none"><path d="M-16,-3 Q0,3 16,-3 L15,13 Q0,16 -15,13 Z" fill="#153345"></path><path d="M-16,-3 Q0,3 16,-3" stroke="rgba(4,18,27,.35)" stroke-width="2.5" fill="none" stroke-linecap="round"></path><ellipse cx="-11" cy="0" rx="4.5" ry="6" fill="#E3AE87"></ellipse></g><g data-p="hR-relax" style="display: none;"><path d="M-6.5,16 L-7.5,25" stroke="#CB9068" stroke-width="7.4" stroke-linecap="round" fill="none"></path><path d="M-6.5,16 L-7.5,25" stroke="#E3AE87" stroke-width="5.2" stroke-linecap="round" fill="none"></path><path d="M-2.2,18 L-2.6,28" stroke="#CB9068" stroke-width="7.4" stroke-linecap="round" fill="none"></path><path d="M-2.2,18 L-2.6,28" stroke="#E3AE87" stroke-width="5.2" stroke-linecap="round" fill="none"></path><path d="M2.2,18 L2.6,28" stroke="#CB9068" stroke-width="7.4" stroke-linecap="round" fill="none"></path><path d="M2.2,18 L2.6,28" stroke="#E3AE87" stroke-width="5.2" stroke-linecap="round" fill="none"></path><path d="M6.5,16 L7.5,24" stroke="#CB9068" stroke-width="7.4" stroke-linecap="round" fill="none"></path><path d="M6.5,16 L7.5,24" stroke="#E3AE87" stroke-width="5.2" stroke-linecap="round" fill="none"></path><path d="M-9,6 L-15,14" stroke="#CB9068" stroke-width="7.4" stroke-linecap="round" fill="none"></path><path d="M-9,6 L-15,14" stroke="#E3AE87" stroke-width="5.2" stroke-linecap="round" fill="none"></path><ellipse cx="0" cy="10.5" rx="10.5" ry="11" fill="#E3AE87"></ellipse></g><g data-p="hR-open" style=""><path d="M-6.5,16 L-12.5,29" stroke="#CB9068" stroke-width="7.4" stroke-linecap="round" fill="none"></path><path d="M-6.5,16 L-12.5,29" stroke="#E3AE87" stroke-width="5.2" stroke-linecap="round" fill="none"></path><path d="M-2.2,18 L-4,33" stroke="#CB9068" stroke-width="7.4" stroke-linecap="round" fill="none"></path><path d="M-2.2,18 L-4,33" stroke="#E3AE87" stroke-width="5.2" stroke-linecap="round" fill="none"></path><path d="M2.2,18 L4,33" stroke="#CB9068" stroke-width="7.4" stroke-linecap="round" fill="none"></path><path d="M2.2,18 L4,33" stroke="#E3AE87" stroke-width="5.2" stroke-linecap="round" fill="none"></path><path d="M6.5,16 L11.5,28" stroke="#CB9068" stroke-width="7.4" stroke-linecap="round" fill="none"></path><path d="M6.5,16 L11.5,28" stroke="#E3AE87" stroke-width="5.2" stroke-linecap="round" fill="none"></path><path d="M-9,7 L-20,9" stroke="#CB9068" stroke-width="7.4" stroke-linecap="round" fill="none"></path><path d="M-9,7 L-20,9" stroke="#E3AE87" stroke-width="5.2" stroke-linecap="round" fill="none"></path><ellipse cx="0" cy="10.5" rx="10.5" ry="11" fill="#E3AE87"></ellipse></g><g data-p="hR-point" style="display:none"><path d="M-6.5,16 L-6.5,21" stroke="#CB9068" stroke-width="7.4" stroke-linecap="round" fill="none"></path><path d="M-6.5,16 L-6.5,21" stroke="#E3AE87" stroke-width="5.2" stroke-linecap="round" fill="none"></path><path d="M2.2,18 L3,22" stroke="#CB9068" stroke-width="7.4" stroke-linecap="round" fill="none"></path><path d="M2.2,18 L3,22" stroke="#E3AE87" stroke-width="5.2" stroke-linecap="round" fill="none"></path><path d="M6.5,16 L7,20" stroke="#CB9068" stroke-width="7.4" stroke-linecap="round" fill="none"></path><path d="M6.5,16 L7,20" stroke="#E3AE87" stroke-width="5.2" stroke-linecap="round" fill="none"></path><path d="M-2.2,18 L-3,37" stroke="#CB9068" stroke-width="7.4" stroke-linecap="round" fill="none"></path><path d="M-2.2,18 L-3,37" stroke="#E3AE87" stroke-width="5.2" stroke-linecap="round" fill="none"></path><path d="M-9,7 L-14,15" stroke="#CB9068" stroke-width="7.4" stroke-linecap="round" fill="none"></path><path d="M-9,7 L-14,15" stroke="#E3AE87" stroke-width="5.2" stroke-linecap="round" fill="none"></path><ellipse cx="0" cy="10.5" rx="10.5" ry="11" fill="#E3AE87"></ellipse></g><g data-p="hR-thumb" style="display:none"><path d="M-6,15 L-6,19" stroke="#CB9068" stroke-width="7.4" stroke-linecap="round" fill="none"></path><path d="M-6,15 L-6,19" stroke="#E3AE87" stroke-width="5.2" stroke-linecap="round" fill="none"></path><path d="M-2,16 L-2,20" stroke="#CB9068" stroke-width="7.4" stroke-linecap="round" fill="none"></path><path d="M-2,16 L-2,20" stroke="#E3AE87" stroke-width="5.2" stroke-linecap="round" fill="none"></path><path d="M2,16 L2,20" stroke="#CB9068" stroke-width="7.4" stroke-linecap="round" fill="none"></path><path d="M2,16 L2,20" stroke="#E3AE87" stroke-width="5.2" stroke-linecap="round" fill="none"></path><path d="M6,15 L6,19" stroke="#CB9068" stroke-width="7.4" stroke-linecap="round" fill="none"></path><path d="M6,15 L6,19" stroke="#E3AE87" stroke-width="5.2" stroke-linecap="round" fill="none"></path><path d="M-9,9 L-9.5,28" stroke="#CB9068" stroke-width="7.4" stroke-linecap="round" fill="none"></path><path d="M-9,9 L-9.5,28" stroke="#E3AE87" stroke-width="5.2" stroke-linecap="round" fill="none"></path><ellipse cx="0" cy="10" rx="11.5" ry="10" fill="#E3AE87"></ellipse><path d="M-5,15 h11" stroke="#CB9068" stroke-width="2.4" stroke-linecap="round"></path></g><g data-p="hR-scratch" style="display:none"><path d="M-6.5,16 Q-10,23 -6,28" stroke="#CB9068" stroke-width="7.4" stroke-linecap="round" fill="none"></path><path d="M-6.5,16 Q-10,23 -6,28" stroke="#E3AE87" stroke-width="5.2" stroke-linecap="round" fill="none"></path><path d="M-2.2,18 Q-4.5,26 -0.5,30" stroke="#CB9068" stroke-width="7.4" stroke-linecap="round" fill="none"></path><path d="M-2.2,18 Q-4.5,26 -0.5,30" stroke="#E3AE87" stroke-width="5.2" stroke-linecap="round" fill="none"></path><path d="M2.2,18 Q2.5,26 5.5,28" stroke="#CB9068" stroke-width="7.4" stroke-linecap="round" fill="none"></path><path d="M2.2,18 Q2.5,26 5.5,28" stroke="#E3AE87" stroke-width="5.2" stroke-linecap="round" fill="none"></path><path d="M6.5,16 Q9,22 8.5,26" stroke="#CB9068" stroke-width="7.4" stroke-linecap="round" fill="none"></path><path d="M6.5,16 Q9,22 8.5,26" stroke="#E3AE87" stroke-width="5.2" stroke-linecap="round" fill="none"></path><path d="M-9,6 L-14,12" stroke="#CB9068" stroke-width="7.4" stroke-linecap="round" fill="none"></path><path d="M-9,6 L-14,12" stroke="#E3AE87" stroke-width="5.2" stroke-linecap="round" fill="none"></path><ellipse cx="0" cy="10.5" rx="10.5" ry="11" fill="#E3AE87"></ellipse></g><g data-p="hR-cup" style="display:none"><path d="M-6.5,16 L-8,30" stroke="#CB9068" stroke-width="7.4" stroke-linecap="round" fill="none"></path><path d="M-6.5,16 L-8,30" stroke="#E3AE87" stroke-width="5.2" stroke-linecap="round" fill="none"></path><path d="M-2.2,18 L-2.6,33" stroke="#CB9068" stroke-width="7.4" stroke-linecap="round" fill="none"></path><path d="M-2.2,18 L-2.6,33" stroke="#E3AE87" stroke-width="5.2" stroke-linecap="round" fill="none"></path><path d="M2.2,18 L2.8,33" stroke="#CB9068" stroke-width="7.4" stroke-linecap="round" fill="none"></path><path d="M2.2,18 L2.8,33" stroke="#E3AE87" stroke-width="5.2" stroke-linecap="round" fill="none"></path><path d="M6.5,16 L8,29" stroke="#CB9068" stroke-width="7.4" stroke-linecap="round" fill="none"></path><path d="M6.5,16 L8,29" stroke="#E3AE87" stroke-width="5.2" stroke-linecap="round" fill="none"></path><path d="M-9,7 L-16,13" stroke="#CB9068" stroke-width="7.4" stroke-linecap="round" fill="none"></path><path d="M-9,7 L-16,13" stroke="#E3AE87" stroke-width="5.2" stroke-linecap="round" fill="none"></path><ellipse cx="0" cy="10.5" rx="10.5" ry="11" fill="#E3AE87"></ellipse></g><g data-p="hR-fist" style="display:none"><path d="M-6.5,15 L-6.5,18" stroke="#CB9068" stroke-width="7.4" stroke-linecap="round" fill="none"></path><path d="M-6.5,15 L-6.5,18" stroke="#E3AE87" stroke-width="5.2" stroke-linecap="round" fill="none"></path><path d="M-2.2,16 L-2.2,19" stroke="#CB9068" stroke-width="7.4" stroke-linecap="round" fill="none"></path><path d="M-2.2,16 L-2.2,19" stroke="#E3AE87" stroke-width="5.2" stroke-linecap="round" fill="none"></path><path d="M2.2,16 L2.2,19" stroke="#CB9068" stroke-width="7.4" stroke-linecap="round" fill="none"></path><path d="M2.2,16 L2.2,19" stroke="#E3AE87" stroke-width="5.2" stroke-linecap="round" fill="none"></path><path d="M6.5,15 L6.5,18" stroke="#CB9068" stroke-width="7.4" stroke-linecap="round" fill="none"></path><path d="M6.5,15 L6.5,18" stroke="#E3AE87" stroke-width="5.2" stroke-linecap="round" fill="none"></path><path d="M-9,8 L-5,15" stroke="#CB9068" stroke-width="7.4" stroke-linecap="round" fill="none"></path><path d="M-9,8 L-5,15" stroke="#E3AE87" stroke-width="5.2" stroke-linecap="round" fill="none"></path><ellipse cx="0" cy="10.5" rx="10.5" ry="11" fill="#E3AE87"></ellipse></g></g>
      </g>
    </g>
  </svg>